<?xml version="1.0" standalone="no"?>
<!DOCTYPE svg PUBLIC "-//W3C//DTD SVG 20010904//EN"
 "http://www.w3.org/TR/2001/REC-SVG-20010904/DTD/svg10.dtd">
<svg version="1.0" xmlns="http://www.w3.org/2000/svg"
 width="180.000000pt" height="180.000000pt" viewBox="0 0 180.000000 180.000000"
 preserveAspectRatio="xMidYMid meet">
<metadata>
Created by potrace 1.15, written by Peter Selinger 2001-2017
</metadata>
<g transform="translate(0.000000,180.000000) scale(0.100000,-0.100000)"
fill="#000000" stroke="none">
<path d="M110 1670 c-48 -51 -50 -81 -49 -617 1 -284 5 -481 9 -458 17 82 21
103 40 235 12 74 27 164 34 200 8 36 17 93 21 128 l7 62 42 0 41 0 19 -102
c10 -57 30 -170 43 -253 13 -82 31 -190 39 -240 8 -49 12 -95 9 -103 -3 -8
-16 -12 -32 -10 -24 3 -29 9 -36 48 -5 25 -12 61 -16 80 l-7 35 -62 3 c-34 2
-62 2 -63 0 0 -2 -6 -39 -12 -83 l-12 -80 -32 0 -33 0 0 -88 c0 -109 14 -169
50 -207 l28 -30 742 0 c514 0 748 3 762 11 11 6 30 32 41 57 20 42 22 68 25
259 2 117 1 213 -3 213 -3 0 -48 -37 -98 -81 l-92 -81 -3 63 -3 63 48 40 c26
23 64 56 83 74 l35 32 -35 33 c-20 17 -57 50 -83 72 l-48 40 3 64 c3 58 5 63
18 50 9 -8 53 -47 98 -88 l83 -74 -4 319 c-4 342 -8 378 -54 420 l-26 24 -744
0 -745 0 -28 -30z m908 -782 c2 -238 4 -278 17 -278 11 0 15 -12 15 -50 l0
-50 -50 0 c-40 0 -50 3 -50 17 0 14 -3 13 -23 -5 -30 -28 -48 -28 -74 0 -40
45 -56 106 -56 218 0 96 2 110 29 164 34 70 63 87 94 56 11 -11 22 -20 25 -20
3 0 5 29 5 65 0 51 -3 65 -15 65 -11 0 -15 12 -15 44 0 49 8 56 60 53 l35 -2
3 -277z m-258 164 l0 -58 -85 -74 c-47 -41 -85 -77 -85 -80 0 -3 38 -39 85
-80 l85 -74 0 -58 c0 -32 -4 -58 -8 -58 -8 0 -72 55 -204 176 -45 41 -48 46
-48 94 0 48 3 54 43 89 162 146 203 181 209 181 5 0 8 -26 8 -58z m418 -264
c2 -149 5 -178 17 -178 11 0 15 -13 15 -50 l0 -51 -62 3 -63 3 -3 48 c-2 36 0
47 11 47 22 0 24 13 23 140 -1 104 -3 115 -18 112 -15 -2 -18 5 -18 46 0 27 3
52 7 56 4 4 25 6 48 4 l40 -3 3 -177z m163 153 c2 -42 -3 -76 -11 -81 -11 -7
13 -153 26 -157 6 -2 14 15 17 39 3 24 9 63 13 87 5 32 4 42 -4 37 -9 -5 -12
9 -12 48 l0 54 53 -1 52 -2 3 -45 c2 -32 -1 -48 -13 -56 -9 -7 -24 -52 -36
-115 -49 -244 -48 -239 -79 -239 -24 0 -27 5 -45 86 -13 57 -55 256 -55 260 0
1 -9 4 -20 7 -16 4 -20 14 -20 49 0 25 2 47 5 50 3 2 32 5 65 5 58 0 60 -1 61
-26z"/>
<path d="M878 818 c-16 -57 -14 -125 5 -171 30 -71 67 -18 67 96 0 112 -47
160 -72 75z"/>
</g>
</svg>
